<svg width="189" height="30" viewBox="0 0 189 30" fill="none" xmlns="http://www.w3.org/2000/svg">
<g clip-path="url(#clip0_18_440)">
<path d="M55.9874 8.2692L49.2502 23.6203H45.7061L39 8.2692H42.8858L47.6164 19.2298L52.4123 8.2692H55.9874Z" fill="#16AFE6"/>
<path d="M57.2734 8.2692H60.8703V23.614H57.2734V8.2692Z" fill="#16AFE6"/>
<path d="M74.87 8.94867C75.8199 9.3503 76.6335 10.0216 77.212 10.8809C77.6446 11.5303 77.9288 12.2684 78.0441 13.042C78.1595 13.8156 78.1031 14.6053 77.8791 15.3543C77.655 16.1032 77.2689 16.7927 76.7485 17.373C76.2282 17.9532 75.5866 18.4098 74.87 18.7098C73.7329 19.1809 72.5114 19.4091 71.2824 19.38H68.1545V23.6202H64.5576V8.27538H71.2824C72.5117 8.24562 73.7336 8.47495 74.87 8.94867V8.94867ZM73.5499 15.8037C73.8322 15.5652 74.0554 15.2634 74.2015 14.9225C74.3477 14.5816 74.4128 14.211 74.3916 13.8402C74.414 13.4661 74.3496 13.0918 74.2035 12.7472C74.0574 12.4026 73.8336 12.097 73.5499 11.8548C72.9846 11.3944 72.1645 11.1658 71.0836 11.1658H68.1545V16.4895H71.0836C72.1645 16.4927 72.9846 16.2641 73.5499 15.8037Z" fill="#16AFE6"/>
<path d="M83.3839 11.1659H78.4141V8.2692H91.9599V11.1659H86.9901V23.6203H83.3839V11.1659Z" fill="#16AFE6"/>
<path d="M105.922 20.7706V23.6203H93.8887V8.27554H105.633V11.1284H97.4607V14.4604H104.679V17.2225H97.4607V20.7706H105.922Z" fill="#16AFE6"/>
<path d="M108.785 8.2692H112.382V20.7392H120.175V23.6328H108.785V8.2692Z" fill="#16AFE6"/>
<path d="M134.231 20.7706V23.6203H122.194V8.27554H133.942V11.1284H125.769V14.4604H132.985V17.2225H125.769V20.7706H134.231Z" fill="#16AFE6"/>
<path d="M140.191 22.8654C138.935 22.2072 137.882 21.2139 137.147 19.9938C136.412 18.7737 136.023 17.3737 136.023 15.9462C136.023 14.5187 136.412 13.1186 137.147 11.8985C137.882 10.6784 138.935 9.68513 140.191 9.02692C141.526 8.33401 143.008 7.98336 144.509 8.00602C145.761 7.9878 147.004 8.22646 148.162 8.7075C149.22 9.15523 150.16 9.84706 150.905 10.7274L148.597 12.8318C148.119 12.2583 147.52 11.7992 146.844 11.4878C146.168 11.1763 145.432 11.0204 144.689 11.0311C143.791 11.0154 142.904 11.231 142.111 11.6575C141.372 12.0598 140.76 12.6644 140.347 13.4018C139.931 14.1843 139.713 15.0583 139.713 15.9462C139.713 16.834 139.931 17.7081 140.347 18.4906C140.76 19.2271 141.372 19.8307 142.111 20.2318C142.904 20.6582 143.791 20.8738 144.689 20.8581C145.434 20.8679 146.171 20.7096 146.847 20.3948C147.524 20.08 148.121 19.6166 148.597 19.0386L150.905 21.1431C150.163 22.0362 149.219 22.7356 148.152 23.1817C146.99 23.6622 145.743 23.9009 144.487 23.8832C142.994 23.9055 141.518 23.5559 140.191 22.8654V22.8654Z" fill="#16AFE6"/>
<path d="M156.157 22.8531C154.904 22.2055 153.851 21.2229 153.113 20.0127C152.392 18.7792 152.012 17.3735 152.012 15.9417C152.012 14.5098 152.392 13.1041 153.113 11.8706C153.851 10.6611 154.904 9.67877 156.157 9.03025C157.511 8.35261 159.002 8 160.514 8C162.025 8 163.516 8.35261 164.87 9.03025C166.12 9.6832 167.172 10.6646 167.914 11.8706C168.641 13.1021 169.025 14.5086 169.025 15.9417C169.025 17.3747 168.641 18.7812 167.914 20.0127C167.173 21.2196 166.121 22.2012 164.87 22.8531C163.516 23.5307 162.025 23.8833 160.514 23.8833C159.002 23.8833 157.511 23.5307 156.157 22.8531V22.8531ZM163.006 20.232C163.736 19.8256 164.339 19.2228 164.749 18.4908C165.165 17.7083 165.383 16.8342 165.383 15.9464C165.383 15.0585 165.165 14.1845 164.749 13.4019C164.339 12.6691 163.736 12.0653 163.006 11.6577C162.241 11.2491 161.388 11.0355 160.521 11.0355C159.655 11.0355 158.802 11.2491 158.037 11.6577C157.305 12.0641 156.701 12.6682 156.291 13.4019C155.877 14.1852 155.661 15.059 155.661 15.9464C155.661 16.8338 155.877 17.7076 156.291 18.4908C156.701 19.2236 157.305 19.8266 158.037 20.232C158.801 20.6432 159.655 20.8583 160.521 20.8583C161.388 20.8583 162.242 20.6432 163.006 20.232Z" fill="#16AFE6"/>
<path d="M185.877 23.6203L185.852 14.4103L181.28 21.9919H179.658L175.108 14.6014V23.6203H171.731V8.27554H174.707L180.525 17.8144L186.253 8.27554H189.207L189.25 23.6203H185.877Z" fill="#16AFE6"/>
<path fill-rule="evenodd" clip-rule="evenodd" d="M11.2891 0L16.0967 10.3941L17.5068 13.4433L18.9168 10.3941L23.7245 0H20.9036L17.5068 7.34495L14.1099 0H11.2891Z" fill="#495057"/>
<path fill-rule="evenodd" clip-rule="evenodd" d="M8.45951 0L17.5012 19.5486L17.505 19.5401L18.915 22.59V22.5978L17.5042 25.6469L16.7585 27.2598H12.6113L0 0H2.82009L14.6818 25.6446L16.0911 22.5978L5.63942 0H8.45951ZM18.915 16.4925L20.3259 19.5424L29.3637 0H26.5428L18.915 16.4925Z" fill="#495057"/>
<path fill-rule="evenodd" clip-rule="evenodd" d="M15.4286 1.4518C16.7221 1.54181 17.9972 1.81096 19.2179 2.25164L18.4422 3.92799C17.7552 3.69141 17.0487 3.51702 16.331 3.40689L15.4286 1.4518ZM22.5287 3.9729C22.9174 4.24545 23.2909 4.53632 23.6493 4.84553L22.8436 6.58769C22.4947 6.26093 22.1275 5.95459 21.7438 5.67015L22.5287 3.9729ZM26.3311 7.92799C27.8253 10.2429 28.6186 12.9462 28.6144 15.7081C28.6144 23.6012 22.2676 30 14.4394 30C6.6112 30 0.263688 23.6012 0.263688 15.7081C0.259341 12.7796 1.15167 9.92114 2.81882 7.52303L3.73274 9.4998C2.66364 11.3737 2.09691 13.496 2.08832 15.6578C2.07973 17.8195 2.62958 19.9463 3.68375 21.8288C4.73793 23.7113 6.2601 25.2846 8.10048 26.394C9.94085 27.5033 12.036 28.1104 14.1798 28.1556C16.3235 28.2007 18.442 27.6823 20.3267 26.6514C22.2114 25.6205 23.7974 24.1127 24.9286 22.2762C26.0599 20.4397 26.6973 18.3379 26.7783 16.1777C26.8592 14.0174 26.3809 11.8732 25.3903 9.95586L26.3288 7.92799H26.3311ZM12.2468 3.45412C11.7726 3.53942 11.3038 3.65293 10.8429 3.79404L10.0641 2.11072C10.5201 1.96199 10.9833 1.83665 11.4519 1.73519L12.2468 3.45412ZM7.48595 5.42005C7.09401 5.68966 6.71759 5.98152 6.35853 6.29423L5.55981 4.56833C5.92754 4.26957 6.30997 3.98969 6.70566 3.72977L7.48595 5.42005Z" fill="#16AFE6"/>
</g>
<defs>
<clipPath id="clip0_18_440">
<rect width="189" height="30" fill="white"/>
</clipPath>
</defs>
</svg>
